<svg width="263" height="79" viewBox="0 0 263 79" fill="none" xmlns="http://www.w3.org/2000/svg">
<path opacity="0.93" d="M39.0305 0C17.4745 0 0 17.4745 0 39.0305C0 48.0679 3.07157 56.3879 8.22771 63.0035H39.2781L41.0117 50.175C50.8189 50.918 57.6542 46.8069 60.0812 42.7949H34.7213L32.8886 55.4253H13.0762C-7.28107 18.2274 46.7573 -12.68 67.0156 27.2916H76.2648C71.2821 11.4719 56.496 0 39.0305 0Z" fill="#3085EA"/>
<path opacity="0.93" fill-rule="evenodd" clip-rule="evenodd" d="M77.9943 39.0306C77.9943 60.5866 60.5197 78.0611 38.9638 78.0611C29.1733 78.0611 20.2248 74.4563 13.373 68.5016H30.593C41.4403 72.365 67.8899 67.9568 69.3263 39.0306L35.1994 38.6344L36.2396 31.4028H77.2493C77.738 33.8697 77.9943 36.4202 77.9943 39.0306Z" fill="#181A39"/>
<path d="M22.6857 19.8125L18.8223 48.7387H26.1529L29.2238 27.2917H60.8742C60.0321 25.5581 56.3173 19.8125 47.6989 19.8125H22.6857Z" fill="#3085EA"/>
<path d="M105.228 21C107.062 21 108.611 21.6231 109.875 22.8694C111.139 24.1156 111.771 25.6289 111.771 27.4092C111.771 29.1896 111.139 30.7028 109.875 31.9491C108.611 33.1953 107.062 33.8184 105.228 33.8184H102.424V39.6936H98.1514V21H105.228ZM105.228 29.8127C105.887 29.8127 106.43 29.5812 106.857 29.1183C107.285 28.6555 107.498 28.0857 107.498 27.4092C107.498 26.7327 107.285 26.163 106.857 25.7001C106.43 25.2372 105.887 25.0058 105.228 25.0058H102.424V29.8127H105.228Z" fill="#3F8EEC"/>
<path d="M118.176 35.581H125.653V39.6936H113.903V21H125.52V25.1126H118.176V28.2104H124.852V32.2695H118.176V35.581Z" fill="#3F8EEC"/>
<path d="M146.758 21V39.6936H142.485V28.8246L137.651 36.756H137.171L132.337 28.8246V39.6936H128.064V21H132.337L137.411 29.3053L142.485 21H146.758Z" fill="#3F8EEC"/>
<path d="M161.216 21V25.1126H154.807V39.6936H150.534V21H161.216Z" fill="#282A47"/>
<path d="M174.668 29.9996C176.199 30.9788 176.965 32.3853 176.965 34.219C176.965 35.8391 176.386 37.1566 175.229 38.1714C174.072 39.1862 172.639 39.6936 170.93 39.6936H163.078V21H170.395C172.069 21 173.467 21.4985 174.588 22.4955C175.728 23.4747 176.297 24.7565 176.297 26.341C176.297 27.8365 175.754 29.056 174.668 29.9996ZM170.395 25.0058H167.351V28.3172H170.395C170.876 28.3172 171.268 28.1659 171.57 27.8632C171.873 27.5427 172.024 27.1422 172.024 26.6615C172.024 26.1808 171.873 25.7891 171.57 25.4865C171.268 25.166 170.876 25.0058 170.395 25.0058ZM170.93 35.6878C171.464 35.6878 171.891 35.5276 172.211 35.2071C172.532 34.8688 172.692 34.4327 172.692 33.8985C172.692 33.3644 172.532 32.9372 172.211 32.6167C171.891 32.2784 171.464 32.1093 170.93 32.1093H167.351V35.6878H170.93Z" fill="#282A47"/>
<path d="M190.975 39.6936L190.04 36.756H183.097L182.162 39.6936H177.489L183.844 21H189.292L195.648 39.6936H190.975ZM184.378 32.7502H188.758L186.568 25.887L184.378 32.7502Z" fill="#282A47"/>
<path d="M204.319 21C206.153 21 207.701 21.6231 208.966 22.8694C210.23 24.1156 210.862 25.6289 210.862 27.4092C210.862 29.1896 210.23 30.7028 208.966 31.9491C207.701 33.1953 206.153 33.8184 204.319 33.8184H201.515V39.6936H197.242V21H204.319ZM204.319 29.8127C204.978 29.8127 205.521 29.5812 205.948 29.1183C206.375 28.6555 206.589 28.0857 206.589 27.4092C206.589 26.7327 206.375 26.163 205.948 25.7001C205.521 25.2372 204.978 25.0058 204.319 25.0058H201.515V29.8127H204.319Z" fill="#282A47"/>
<path d="M226.352 35.581H228.354V43.272H224.082V39.6936H214.735V43.272H210.462V35.581H212.358C213.337 34.1745 213.827 32.1093 213.827 29.3854V21H226.352V35.581ZM216.898 35.581H222.079V25.0058H218.1V29.4388C218.1 32.0915 217.699 34.1389 216.898 35.581Z" fill="#282A47"/>
<path d="M241.038 39.6936V29.5456L233.828 39.6936H230.623V21H234.896V31.1479L242.107 21H245.311V39.6936H241.038Z" fill="#282A47"/>
<path d="M262 21V39.6936H257.727V33.5514H256.365L252.386 39.6936H247.579L251.959 33.0173C250.819 32.5366 249.893 31.7888 249.181 30.7741C248.469 29.7415 248.113 28.6198 248.113 27.4092C248.113 25.6289 248.736 24.1156 249.982 22.8694C251.229 21.6231 252.742 21 254.522 21H262ZM254.522 29.8127H257.727V25.0058H254.522C253.935 25.0058 253.427 25.2372 253 25.7001C252.591 26.163 252.386 26.7327 252.386 27.4092C252.386 28.0857 252.591 28.6555 253 29.1183C253.427 29.5812 253.935 29.8127 254.522 29.8127Z" fill="#282A47"/>
<g opacity="0.69">
<path d="M101.449 51.4009C102.589 51.4009 103.507 51.7888 104.203 52.5644C104.899 53.3297 105.247 54.2967 105.247 55.4654C105.247 56.634 104.894 57.6062 104.188 58.3818C103.492 59.1472 102.569 59.5298 101.419 59.5298C100.602 59.5298 99.8911 59.3488 99.2859 58.9869C98.6909 58.6145 98.2622 58.113 98 57.4821L98.8623 56.9702C99.0338 57.4459 99.3414 57.8285 99.7852 58.1181C100.229 58.3974 100.774 58.537 101.419 58.537C102.175 58.537 102.806 58.2991 103.31 57.8234C103.814 57.3373 104.117 56.7168 104.218 55.9618H100.451V54.969H104.218C104.127 54.214 103.83 53.5986 103.325 53.1229C102.831 52.6368 102.206 52.3938 101.449 52.3938C100.874 52.3938 100.365 52.5334 99.9213 52.8126C99.4776 53.0919 99.1498 53.4694 98.938 53.9451L98.0605 53.4332C98.3631 52.8023 98.8119 52.3059 99.407 51.9439C100.012 51.5819 100.693 51.4009 101.449 51.4009Z" fill="#282A47"/>
<path d="M112.819 51.5871V59.3437H111.82V52.5799H108.401V56.0394C108.401 57.3321 108.159 58.2215 107.675 58.7076C107.201 59.1937 106.546 59.4057 105.708 59.3437V58.3818C106.283 58.4439 106.707 58.3043 106.979 57.963C107.262 57.6217 107.403 56.9805 107.403 56.0394V51.5871H112.819Z" fill="#282A47"/>
<path d="M118.429 51.4009C119.548 51.4009 120.451 51.8095 121.137 52.6265C121.833 53.4332 122.181 54.3898 122.181 55.4964C122.181 55.6102 122.17 55.7705 122.15 55.9773H115.509C115.61 56.7633 115.932 57.389 116.477 57.8544C117.032 58.3095 117.713 58.537 118.519 58.537C119.094 58.537 119.588 58.418 120.002 58.1802C120.426 57.932 120.743 57.6114 120.955 57.2184L121.833 57.7458C121.5 58.2939 121.046 58.7283 120.471 59.0489C119.896 59.3695 119.241 59.5298 118.504 59.5298C117.314 59.5298 116.346 59.1472 115.6 58.3818C114.853 57.6165 114.48 56.6444 114.48 55.4654C114.48 54.3071 114.848 53.3401 115.584 52.5644C116.321 51.7888 117.269 51.4009 118.429 51.4009ZM118.429 52.3938C117.642 52.3938 116.981 52.6368 116.447 53.1229C115.922 53.5986 115.61 54.2192 115.509 54.9845H121.152C121.051 54.1675 120.743 53.5314 120.229 53.0764C119.715 52.6213 119.114 52.3938 118.429 52.3938Z" fill="#282A47"/>
<path d="M129.881 59.3437H128.549L124.767 55.605V59.3437H123.769V51.5871H124.767V55.0155L128.368 51.5871H129.729L125.826 55.3103L129.881 59.3437Z" fill="#282A47"/>
<path d="M136.691 51.5871V52.5799H134.013V59.3437H133.014V52.5799H130.337V51.5871H136.691Z" fill="#282A47"/>
<path d="M141.962 51.4009C143.041 51.4009 143.959 51.7939 144.715 52.5799C145.482 53.3659 145.865 54.3278 145.865 55.4654C145.865 56.603 145.482 57.5648 144.715 58.3508C143.959 59.1368 143.041 59.5298 141.962 59.5298C140.621 59.5298 139.602 58.961 138.906 57.8234V62.4463H137.907V51.5871H138.906V53.1074C139.602 51.9698 140.621 51.4009 141.962 51.4009ZM139.768 57.6527C140.343 58.2422 141.049 58.537 141.886 58.537C142.723 58.537 143.429 58.2422 144.004 57.6527C144.579 57.0529 144.867 56.3238 144.867 55.4654C144.867 54.607 144.579 53.883 144.004 53.2935C143.429 52.6937 142.723 52.3938 141.886 52.3938C141.049 52.3938 140.343 52.6937 139.768 53.2935C139.193 53.883 138.906 54.607 138.906 55.4654C138.906 56.3238 139.193 57.0529 139.768 57.6527Z" fill="#282A47"/>
<path d="M153.864 58.3663C153.098 59.142 152.16 59.5298 151.05 59.5298C149.941 59.5298 148.998 59.142 148.221 58.3663C147.455 57.5803 147.071 56.6134 147.071 55.4654C147.071 54.3174 147.455 53.3556 148.221 52.5799C148.998 51.7939 149.941 51.4009 151.05 51.4009C152.16 51.4009 153.098 51.7939 153.864 52.5799C154.641 53.3556 155.029 54.3174 155.029 55.4654C155.029 56.6134 154.641 57.5803 153.864 58.3663ZM148.932 57.6527C149.507 58.2422 150.213 58.537 151.05 58.537C151.887 58.537 152.593 58.2422 153.168 57.6527C153.743 57.0529 154.031 56.3238 154.031 55.4654C154.031 54.607 153.743 53.883 153.168 53.2935C152.593 52.6937 151.887 52.3938 151.05 52.3938C150.213 52.3938 149.507 52.6937 148.932 53.2935C148.357 53.883 148.07 54.607 148.07 55.4654C148.07 56.3238 148.357 57.0529 148.932 57.6527Z" fill="#282A47"/>
<path d="M160.754 51.4009C161.834 51.4009 162.751 51.7939 163.508 52.5799C164.274 53.3659 164.658 54.3278 164.658 55.4654C164.658 56.603 164.274 57.5648 163.508 58.3508C162.751 59.1368 161.834 59.5298 160.754 59.5298C159.413 59.5298 158.394 58.961 157.698 57.8234V62.4463H156.7V51.5871H157.698V53.1074C158.394 51.9698 159.413 51.4009 160.754 51.4009ZM158.561 57.6527C159.136 58.2422 159.842 58.537 160.679 58.537C161.516 58.537 162.222 58.2422 162.797 57.6527C163.372 57.0529 163.659 56.3238 163.659 55.4654C163.659 54.607 163.372 53.883 162.797 53.2935C162.222 52.6937 161.516 52.3938 160.679 52.3938C159.842 52.3938 159.136 52.6937 158.561 53.2935C157.986 53.883 157.698 54.607 157.698 55.4654C157.698 56.3238 157.986 57.0529 158.561 57.6527Z" fill="#282A47"/>
<path d="M169.813 51.4009C170.932 51.4009 171.835 51.8095 172.521 52.6265C173.216 53.4332 173.564 54.3898 173.564 55.4964C173.564 55.6102 173.554 55.7705 173.534 55.9773H166.893C166.994 56.7633 167.316 57.389 167.861 57.8544C168.416 58.3095 169.096 58.537 169.903 58.537C170.478 58.537 170.972 58.418 171.386 58.1802C171.81 57.932 172.127 57.6114 172.339 57.2184L173.216 57.7458C172.884 58.2939 172.43 58.7283 171.855 59.0489C171.28 59.3695 170.624 59.5298 169.888 59.5298C168.698 59.5298 167.73 59.1472 166.984 58.3818C166.237 57.6165 165.864 56.6444 165.864 55.4654C165.864 54.3071 166.232 53.3401 166.968 52.5644C167.705 51.7888 168.653 51.4009 169.813 51.4009ZM169.813 52.3938C169.026 52.3938 168.365 52.6368 167.831 53.1229C167.306 53.5986 166.994 54.2192 166.893 54.9845H172.536C172.435 54.1675 172.127 53.5314 171.613 53.0764C171.098 52.6213 170.498 52.3938 169.813 52.3938Z" fill="#282A47"/>
<path d="M182.566 51.5871V59.3437H181.567V53.1539L178.92 57.5597H178.799L176.151 53.1539V59.3437H175.153V51.5871H176.302L178.859 55.8377L181.416 51.5871H182.566Z" fill="#282A47"/>
<path d="M191.021 58.3663C190.254 59.142 189.316 59.5298 188.207 59.5298C187.097 59.5298 186.154 59.142 185.378 58.3663C184.611 57.5803 184.228 56.6134 184.228 55.4654C184.228 54.3174 184.611 53.3556 185.378 52.5799C186.154 51.7939 187.097 51.4009 188.207 51.4009C189.316 51.4009 190.254 51.7939 191.021 52.5799C191.797 53.3556 192.186 54.3174 192.186 55.4654C192.186 56.6134 191.797 57.5803 191.021 58.3663ZM186.089 57.6527C186.664 58.2422 187.37 58.537 188.207 58.537C189.044 58.537 189.75 58.2422 190.325 57.6527C190.9 57.0529 191.187 56.3238 191.187 55.4654C191.187 54.607 190.9 53.883 190.325 53.2935C189.75 52.6937 189.044 52.3938 188.207 52.3938C187.37 52.3938 186.664 52.6937 186.089 53.2935C185.514 53.883 185.227 54.607 185.227 55.4654C185.227 56.3238 185.514 57.0529 186.089 57.6527Z" fill="#282A47"/>
<path d="M199.212 51.5871H200.211V59.3437H199.212V55.9618H194.855V59.3437H193.857V51.5871H194.855V54.969H199.212V51.5871Z" fill="#282A47"/>
<path d="M207.768 51.5871V52.5799H205.091V59.3437H204.092V52.5799H201.414V51.5871H207.768Z" fill="#282A47"/>
<path d="M214.341 51.5871H215.339V59.3437H214.341V55.9618H209.984V59.3437H208.985V51.5871H209.984V54.969H214.341V51.5871Z" fill="#282A47"/>
<path d="M220.522 54.5346C221.228 54.5346 221.823 54.7621 222.307 55.2172C222.801 55.6619 223.048 56.2359 223.048 56.9391C223.048 57.6424 222.801 58.2215 222.307 58.6766C221.823 59.1213 221.228 59.3437 220.522 59.3437H217.451V51.5871H218.449V54.5346H220.522ZM224.107 51.5871H225.106V59.3437H224.107V51.5871ZM220.522 58.3508C220.945 58.3508 221.303 58.2215 221.596 57.963C221.898 57.7044 222.05 57.3632 222.05 56.9391C222.05 56.5151 221.898 56.1738 221.596 55.9153C221.303 55.6567 220.945 55.5274 220.522 55.5274H218.449V58.3508H220.522Z" fill="#282A47"/>
<path d="M228.441 50.346V49.4463H232.375V50.346H228.441ZM232.738 51.5871H233.585V59.3437H232.587V53.3711L228.078 59.3437H227.231V51.5871H228.229V57.5597L232.738 51.5871Z" fill="#282A47"/>
<path d="M245.681 58.3508H246.892V61.4224H245.893V59.3437H239.479V51.5871H240.477V58.3508H244.683V51.5871H245.681V58.3508Z" fill="#282A47"/>
<path d="M251.601 51.4009C252.721 51.4009 253.624 51.8095 254.309 52.6265C255.005 53.4332 255.353 54.3898 255.353 55.4964C255.353 55.6102 255.343 55.7705 255.323 55.9773H248.682C248.782 56.7633 249.105 57.389 249.65 57.8544C250.204 58.3095 250.885 58.537 251.692 58.537C252.267 58.537 252.761 58.418 253.175 58.1802C253.598 57.932 253.916 57.6114 254.128 57.2184L255.005 57.7458C254.672 58.2939 254.219 58.7283 253.644 59.0489C253.069 59.3695 252.413 59.5298 251.677 59.5298C250.487 59.5298 249.519 59.1472 248.772 58.3818C248.026 57.6165 247.653 56.6444 247.653 55.4654C247.653 54.3071 248.021 53.3401 248.757 52.5644C249.493 51.7888 250.441 51.4009 251.601 51.4009ZM251.601 52.3938C250.815 52.3938 250.154 52.6368 249.62 53.1229C249.095 53.5986 248.782 54.2192 248.682 54.9845H254.324C254.224 54.1675 253.916 53.5314 253.402 53.0764C252.887 52.6213 252.287 52.3938 251.601 52.3938Z" fill="#282A47"/>
<path d="M263 59.3437H261.805L259.445 56.148L257.085 59.3437H255.89L258.855 55.3258L256.086 51.5871H257.281L259.445 54.5191L261.608 51.5871H262.803L260.05 55.3258L263 59.3437Z" fill="#282A47"/>
</g>
</svg>
